<svg width="800" height="800" viewBox="0 0 800 800" fill="none" xmlns="http://www.w3.org/2000/svg">
<path d="M533.333 506.667V562.917L563.333 596.667M300 366.667H133.333M300 100V233.333M500 100V233.333M300 166.667H400M500 166.667H600C636.82 166.667 666.667 196.514 666.667 233.333V300M200 166.667C163.181 166.667 133.333 196.514 133.333 233.333V633.333C133.333 670.153 163.181 700 200 700H300M683.333 566.667C683.333 649.51 616.177 716.667 533.333 716.667C450.49 716.667 383.333 649.51 383.333 566.667C383.333 483.823 450.49 416.667 533.333 416.667C616.177 416.667 683.333 483.823 683.333 566.667Z" stroke="#D72323" stroke-width="50" stroke-linecap="round" stroke-linejoin="round"/>
</svg>
