<svg width="30" height="30" viewBox="0 0 30 30" fill="none" xmlns="http://www.w3.org/2000/svg">
<g clip-path="url(#clip0_769_1462)">
<path d="M10.3037 3.7875C10.6253 3.86807 10.9017 4.07307 11.0721 4.35742C11.2426 4.64177 11.293 4.98218 11.2125 5.30375L6.21249 25.3038C6.17501 25.4654 6.10571 25.618 6.00863 25.7526C5.91155 25.8872 5.78865 26.0011 5.64708 26.0877C5.50551 26.1743 5.34811 26.2319 5.18407 26.257C5.02003 26.2821 4.85263 26.2743 4.69163 26.2341C4.53063 26.1938 4.37925 26.1219 4.24634 26.0226C4.11342 25.9232 4.00162 25.7984 3.91746 25.6553C3.8333 25.5123 3.77846 25.3539 3.75615 25.1895C3.73383 25.025 3.74449 24.8578 3.78749 24.6975L8.78749 4.6975C8.82725 4.53816 8.89801 4.38822 8.99574 4.25624C9.09347 4.12426 9.21625 4.01283 9.35706 3.92833C9.49787 3.84382 9.65395 3.78788 9.81639 3.76372C9.97883 3.73956 10.1444 3.74764 10.3037 3.7875ZM21.2125 4.69625L26.2125 24.6963C26.2555 24.8565 26.2662 25.0238 26.2438 25.1882C26.2215 25.3527 26.1667 25.511 26.0825 25.6541C25.9984 25.7971 25.8866 25.9219 25.7536 26.0213C25.6207 26.1207 25.4694 26.1926 25.3084 26.2328C25.1474 26.2731 24.98 26.2809 24.8159 26.2557C24.6519 26.2306 24.4945 26.1731 24.3529 26.0865C24.2113 25.9999 24.0884 25.886 23.9914 25.7514C23.8943 25.6168 23.825 25.4642 23.7875 25.3025L18.7875 5.3025C18.7445 5.14221 18.7338 4.97497 18.7561 4.81052C18.7785 4.64607 18.8333 4.48771 18.9175 4.34468C19.0016 4.20165 19.1134 4.07681 19.2463 3.97744C19.3793 3.87807 19.5306 3.80616 19.6916 3.76591C19.8526 3.72566 20.02 3.71788 20.1841 3.74301C20.3481 3.76813 20.5055 3.82568 20.6471 3.91228C20.7886 3.99888 20.9116 4.1128 21.0086 4.2474C21.1057 4.382 21.175 4.53458 21.2125 4.69625ZM15 21.25C15.3062 21.25 15.6017 21.3624 15.8305 21.5659C16.0593 21.7693 16.2054 22.0497 16.2412 22.3537L16.25 22.5V25C16.2496 25.3186 16.1276 25.625 15.9089 25.8567C15.6902 26.0884 15.3913 26.2278 15.0732 26.2465C14.7552 26.2651 14.442 26.1617 14.1977 25.9572C13.9534 25.7527 13.7964 25.4626 13.7587 25.1463L13.75 25V22.5C13.75 22.1685 13.8817 21.8505 14.1161 21.6161C14.3505 21.3817 14.6685 21.25 15 21.25ZM15 12.5C15.3315 12.5 15.6495 12.6317 15.8839 12.8661C16.1183 13.1005 16.25 13.4185 16.25 13.75V16.25C16.25 16.5815 16.1183 16.8995 15.8839 17.1339C15.6495 17.3683 15.3315 17.5 15 17.5C14.6685 17.5 14.3505 17.3683 14.1161 17.1339C13.8817 16.8995 13.75 16.5815 13.75 16.25V13.75C13.75 13.4185 13.8817 13.1005 14.1161 12.8661C14.3505 12.6317 14.6685 12.5 15 12.5ZM15 3.75C15.3062 3.75004 15.6017 3.86245 15.8305 4.0659C16.0593 4.26934 16.2054 4.54969 16.2412 4.85375L16.25 5V7.5C16.2496 7.8186 16.1276 8.12504 15.9089 8.35671C15.6902 8.58838 15.3913 8.72779 15.0732 8.74647C14.7552 8.76514 14.442 8.66166 14.1977 8.45717C13.9534 8.25268 13.7964 7.96262 13.7587 7.64625L13.75 7.5V5C13.75 4.66848 13.8817 4.35054 14.1161 4.11612C14.3505 3.8817 14.6685 3.75 15 3.75Z" fill="#D72323"/>
</g>
<defs>
<clipPath id="clip0_769_1462">
<rect width="30" height="30" fill="white"/>
</clipPath>
</defs>
</svg>
