<svg width="48" height="48" viewBox="0 0 48 48" fill="none" xmlns="http://www.w3.org/2000/svg">
<g clip-path="url(#clip0_913_1315)">
<path fill-rule="evenodd" clip-rule="evenodd" d="M47.3085 47.8492H0.70202C0.312033 47.8492 0 47.5371 0 47.1472V16.2972C0 16.0631 0.11704 15.8682 0.312034 15.7511L3.23716 13.7776V0.852654C3.23716 0.462668 3.54919 0.150635 3.93918 0.150635H44.0714C44.4614 0.150635 44.7734 0.462669 44.7734 0.852654V13.8615L47.6593 15.7511C47.8544 15.8681 47.9714 16.1021 47.9714 16.3362L47.9736 47.317C47.9129 47.6744 47.6539 47.8456 47.3085 47.8492ZM36.9341 24.5653H11.0763C10.1509 24.5653 10.1509 23.1613 11.0763 23.1613H36.9341C37.8595 23.1613 37.8595 24.5653 36.9341 24.5653ZM36.9341 19.8853H11.0763C10.1509 19.8853 10.1509 18.4812 11.0763 18.4812H36.9341C37.8595 18.4812 37.8595 19.8853 36.9341 19.8853ZM36.9341 15.2441H11.0763C10.1509 15.2441 10.1509 13.84 11.0763 13.84L36.9341 13.8402C37.8594 13.8402 37.8596 15.2441 36.9341 15.2441ZM36.9341 10.5639H11.0763C10.1509 10.5639 10.1509 9.15988 11.0763 9.15988H36.9341C37.8595 9.15988 37.8595 10.5639 36.9341 10.5639ZM33.7361 5.92283H14.2744C13.3491 5.92283 13.3491 4.51868 14.2744 4.51868L33.7361 4.5188C34.6788 4.5188 34.6345 5.92283 33.7361 5.92283ZM3.23724 15.4143L1.36514 16.6873V21.3946L3.23724 22.6517V15.4143ZM4.64127 23.5945L19.5862 33.6299L23.323 31.1176C23.557 30.9616 23.83 30.9616 24.0641 31.1176L27.88 33.6112L43.3694 23.5229V1.55472H4.6413L4.64127 23.5945ZM44.7735 22.6083L46.6066 21.4144V16.6872L44.7735 15.4812V22.6083ZM3.73265 24.6129L1.36516 23.0232V45.8804L18.3744 34.4447L3.73265 24.6129ZM29.1638 34.45L46.6066 45.8483V23.0316C40.7975 26.8343 34.9795 30.6429 29.1638 34.45ZM23.6739 32.5216C16.7279 37.1881 9.78185 41.855 2.83366 46.5232L45.071 46.523C37.9383 41.8557 30.8059 37.1885 23.6739 32.5216Z" fill="url(#paint0_linear_913_1315)"/>
<path fill-rule="evenodd" clip-rule="evenodd" d="M11.0763 13.8402L36.9342 13.8403C37.8594 13.8403 37.8596 15.2442 36.9342 15.2442H11.0763C10.151 15.2442 10.151 13.8402 11.0763 13.8402ZM11.0763 18.4814H36.9342C37.8595 18.4814 37.8595 19.8854 36.9342 19.8854H11.0763C10.151 19.8854 10.151 18.4814 11.0763 18.4814ZM11.0763 23.1614H36.9342C37.8595 23.1614 37.8595 24.5655 36.9342 24.5655H11.0763C10.151 24.5655 10.151 23.1614 11.0763 23.1614ZM27.88 33.6114L43.3694 23.523V1.55487H4.64124V23.5947L19.5862 33.6301L23.323 31.1178C23.5569 30.9618 23.83 30.9618 24.0641 31.1178L27.88 33.6114ZM36.9342 10.5641H11.0763C10.151 10.5641 10.151 9.16002 11.0763 9.16002H36.9342C37.8595 9.16002 37.8595 10.5641 36.9342 10.5641ZM33.7361 5.92297H14.2744C13.3491 5.92297 13.3491 4.51882 14.2744 4.51882L33.7361 4.51893C34.6788 4.51893 34.6345 5.92297 33.7361 5.92297Z" fill="#FBFFFE"/>
<path fill-rule="evenodd" clip-rule="evenodd" d="M44.7734 15.4813V22.6084L46.6065 21.4145V16.6873L44.7734 15.4813Z" fill="url(#paint1_linear_913_1315)"/>
<path fill-rule="evenodd" clip-rule="evenodd" d="M3.2372 22.6518V15.4143L1.36511 16.6874V21.3947L3.2372 22.6518Z" fill="url(#paint2_linear_913_1315)"/>
<path fill-rule="evenodd" clip-rule="evenodd" d="M18.3744 34.4447L3.7326 24.6131L1.36511 23.0233V45.8804L18.3744 34.4447Z" fill="#F9F9F9"/>
<path fill-rule="evenodd" clip-rule="evenodd" d="M23.6738 32.5217L2.83356 46.5233L45.0709 46.5231L23.6738 32.5217Z" fill="#F9F9F9"/>
<path fill-rule="evenodd" clip-rule="evenodd" d="M46.6065 23.0317L29.1638 34.4501L46.6065 45.8484V23.0317Z" fill="#F9F9F9"/>
</g>
<defs>
<linearGradient id="paint0_linear_913_1315" x1="86.3008" y1="48.4445" x2="-0.406206" y2="48.4445" gradientUnits="userSpaceOnUse">
<stop stop-color="#3A4130"/>
<stop offset="0.487734" stop-color="#3A4750"/>
<stop offset="1" stop-color="#D72323"/>
</linearGradient>
<linearGradient id="paint1_linear_913_1315" x1="48.071" y1="22.6974" x2="44.7579" y2="22.6974" gradientUnits="userSpaceOnUse">
<stop stop-color="#3A4130"/>
<stop offset="0.487734" stop-color="#3A4750"/>
<stop offset="1" stop-color="#D72323"/>
</linearGradient>
<linearGradient id="paint2_linear_913_1315" x1="4.73285" y1="22.7421" x2="1.34926" y2="22.7421" gradientUnits="userSpaceOnUse">
<stop stop-color="#3A4130"/>
<stop offset="0.487734" stop-color="#3A4750"/>
<stop offset="1" stop-color="#D72323"/>
</linearGradient>
<clipPath id="clip0_913_1315">
<rect width="48" height="48" fill="white"/>
</clipPath>
</defs>
</svg>
