<svg width="20" height="20" viewBox="0 0 20 20" fill="none" xmlns="http://www.w3.org/2000/svg">
<rect width="20" height="20" rx="4" fill="white" fill-opacity="0.85"/>
<path d="M9.31405 3.03597C9.37502 3.01143 9.44023 2.99916 9.50595 2.99984C9.57167 3.00053 9.63661 3.01417 9.69705 3.03997L14.597 5.13997C14.68 5.17557 14.7518 5.23296 14.8048 5.30606C14.8578 5.37917 14.89 5.46525 14.898 5.55518C14.906 5.64511 14.8895 5.73552 14.8502 5.81683C14.811 5.89813 14.7504 5.96729 14.675 6.01697L14.673 6.01897L14.663 6.02597L14.617 6.05797C14.3593 6.24258 14.1159 6.4465 13.889 6.66797C13.495 7.05397 13.142 7.51597 13.019 7.97197C13.259 8.66697 13.6 9.46297 13.892 10.106C14.051 10.4548 14.2147 10.8015 14.383 11.146L15.98 12.106C16.291 12.2924 16.5484 12.5562 16.7271 12.8716C16.9058 13.1871 16.9999 13.5434 17 13.906V15.5C17.0001 15.63 16.9495 15.755 16.8589 15.8483C16.7684 15.9417 16.645 15.9961 16.515 16H16.481C16.3417 16.0036 16.2024 16.0036 16.063 16C14.3754 15.9607 12.6986 15.7199 11.068 15.283C8.15805 14.491 4.73805 12.806 3.04805 9.21297C3.01575 9.14451 2.99941 9.0696 3.00028 8.9939C3.00114 8.9182 3.01919 8.84368 3.05305 8.77597C3.57305 7.73697 4.62305 6.51297 5.77305 5.46097C6.92005 4.40997 8.23305 3.46797 9.31405 3.03597ZM16 14.998V14.461C9.67305 13.9 6.16005 11.277 4.43705 8.42197C4.29405 8.62497 4.16705 8.82197 4.06105 9.00997C5.60605 12.067 8.60805 13.577 11.331 14.318C12.8555 14.7262 14.4225 14.9545 16 14.998ZM15.466 12.963L14.077 12.13L13.187 13.02C14.0814 13.2197 14.9876 13.3627 15.9 13.448C15.8076 13.2462 15.6563 13.0772 15.466 12.963ZM12.146 12.646L13.394 11.4L13.385 11.382C13.2476 11.0961 13.1133 10.8088 12.982 10.52C12.6691 9.8399 12.3832 9.14769 12.125 8.44497L10.556 8.18397L11.916 10.224C11.9731 10.3099 12.0022 10.4114 11.9994 10.5145C11.9965 10.6176 11.9618 10.7173 11.9 10.8L10.782 12.29C11.191 12.45 11.622 12.598 12.078 12.732C12.0975 12.7009 12.1203 12.6721 12.146 12.646ZM12.1451 7.43397C12.3821 6.82997 12.819 6.31697 13.188 5.95397C13.271 5.87397 13.352 5.79797 13.43 5.72797L9.49905 4.04397C8.67505 4.41397 7.65605 5.12697 6.68905 5.98197L7.85305 7.14597C7.89963 7.19241 7.93659 7.24758 7.96182 7.30833C7.98704 7.36907 8.00004 7.4342 8.00005 7.49997V10.797C8.54305 11.187 9.15405 11.552 9.84005 11.881L10.887 10.483L9.08405 7.77697C9.03015 7.69585 9.00112 7.60075 9.00052 7.50336C8.99992 7.40597 9.02778 7.31052 9.08067 7.22874C9.13356 7.14696 9.20918 7.08241 9.29825 7.04301C9.38732 7.00362 9.48596 6.99109 9.58205 7.00697L12.1451 7.43397ZM5.95805 6.66497C5.66127 6.95705 5.37637 7.26097 5.10405 7.57597C5.60087 8.47642 6.24128 9.28977 7.00005 9.98397V7.70697L5.95805 6.66497Z" fill="#D72323"/>
</svg>
