<svg width="20" height="20" viewBox="0 0 20 20" fill="none" xmlns="http://www.w3.org/2000/svg">
<rect width="20" height="20" rx="4" fill="white" fill-opacity="0.85"/>
<path d="M10 10.6L8.58 11.9933C8.20667 12.3666 8 12.8533 8 13.3733C8 14.4533 8.9 15.3333 10 15.3333C11.1 15.3333 12 14.4533 12 13.3733C12 12.8533 11.7933 12.36 11.42 11.9933L10 10.6Z" fill="#D72323"/>
<path d="M12.6666 5.99998L12.3733 6.36665C11.5866 7.34665 9.99996 6.79331 9.99996 5.53331V3.33331C9.99996 3.33331 4.66663 5.99998 4.66663 10.6666C4.66663 12.6133 5.70663 14.3133 7.25996 15.24C6.88663 14.7133 6.66663 14.0666 6.66663 13.3733C6.66663 12.4933 7.01329 11.6666 7.64663 11.04L9.99996 8.73331L12.3533 11.0466C12.9866 11.6666 13.3333 12.4933 13.3333 13.38C13.3333 14.06 13.1266 14.6866 12.7666 15.2133C14.0266 14.4466 14.96 13.1733 15.24 11.68C15.68 9.31331 14.5266 7.07998 12.6666 5.99998Z" fill="#D72323"/>
</svg>
