<svg width="512" height="512" viewBox="0 0 512 512" fill="none" xmlns="http://www.w3.org/2000/svg">
<path d="M394.667 213.333H373.333C370.504 213.333 367.791 214.457 365.791 216.457C363.791 218.458 362.667 221.171 362.667 224C362.667 226.829 363.791 229.542 365.791 231.542C367.791 233.543 370.504 234.667 373.333 234.667H394.667C397.496 234.667 400.209 233.543 402.209 231.542C404.21 229.542 405.333 226.829 405.333 224C405.333 221.171 404.21 218.458 402.209 216.457C400.209 214.457 397.496 213.333 394.667 213.333Z" fill="url(#paint0_linear_955_1304)"/>
<path d="M437.333 85.3333H399.147L359.467 45.8666C358.689 44.4709 357.496 43.3523 356.053 42.6666C354.719 42.3644 353.334 42.3644 352 42.6666H160C158.666 42.3644 157.281 42.3644 155.947 42.6666C154.616 43.1215 153.435 43.9332 152.533 45.0133L112.853 85.3333H74.6667C66.1798 85.3333 58.0405 88.7047 52.0393 94.7059C46.0382 100.707 42.6667 108.846 42.6667 117.333V394.667C42.6667 403.154 46.0382 411.293 52.0393 417.294C58.0405 423.295 66.1798 426.667 74.6667 426.667H213.333L247.467 465.707C248.487 466.847 249.737 467.759 251.134 468.383C252.53 469.007 254.043 469.33 255.573 469.33C257.103 469.33 258.616 469.007 260.013 468.383C261.41 467.759 262.66 466.847 263.68 465.707L298.667 426.667H437.333C445.82 426.667 453.96 423.295 459.961 417.294C465.962 411.293 469.333 403.154 469.333 394.667V117.333C469.333 108.846 465.962 100.707 459.961 94.7059C453.96 88.7047 445.82 85.3333 437.333 85.3333ZM262.187 170.667H249.813L217.813 138.667L228.48 128H283.52L294.187 138.667L262.187 170.667ZM283.52 106.667H228.48L185.813 64H326.187L283.52 106.667ZM303.147 117.333L352 68.48L379.52 96L330.667 144.853L303.147 117.333ZM160 68.48L208.853 117.333L181.333 144.853L132.48 96L160 68.48ZM74.6667 405.333C71.8378 405.333 69.1247 404.21 67.1243 402.209C65.1239 400.209 64.0001 397.496 64.0001 394.667V117.333C64.0001 114.504 65.1239 111.791 67.1243 109.791C69.1247 107.79 71.8378 106.667 74.6667 106.667H112.853L173.867 167.467C174.824 168.487 175.981 169.3 177.265 169.856C178.549 170.412 179.934 170.699 181.333 170.699C182.733 170.699 184.117 170.412 185.402 169.856C186.686 169.3 187.842 168.487 188.8 167.467L202.667 153.813L233.173 184.32L170.667 369.92C170.066 371.681 169.927 373.567 170.263 375.397C170.6 377.227 171.4 378.941 172.587 380.373L193.92 405.333H74.6667ZM256 442.453L193.28 370.987L253.013 192H258.987L318.72 370.987L256 442.453ZM448 394.667C448 397.496 446.876 400.209 444.876 402.209C442.875 404.21 440.162 405.333 437.333 405.333H316.8L338.133 380.373C339.321 378.941 340.121 377.227 340.457 375.397C340.793 373.567 340.654 371.681 340.053 369.92L278.187 184.32L309.333 153.813L323.2 167.467C324.158 168.487 325.314 169.3 326.599 169.856C327.883 170.412 329.267 170.699 330.667 170.699C332.066 170.699 333.451 170.412 334.735 169.856C336.019 169.3 337.176 168.487 338.133 167.467L399.147 106.667H437.333C440.162 106.667 442.875 107.79 444.876 109.791C446.876 111.791 448 114.504 448 117.333V394.667Z" fill="url(#paint1_linear_955_1304)"/>
<defs>
<linearGradient id="paint0_linear_955_1304" x1="439.421" y1="234.933" x2="362.305" y2="234.933" gradientUnits="userSpaceOnUse">
<stop stop-color="#3A4130"/>
<stop offset="0.487734" stop-color="#3A4750"/>
<stop offset="1" stop-color="#D72323"/>
</linearGradient>
<linearGradient id="paint1_linear_955_1304" x1="810.207" y1="474.658" x2="39.054" y2="474.658" gradientUnits="userSpaceOnUse">
<stop stop-color="#3A4130"/>
<stop offset="0.487734" stop-color="#3A4750"/>
<stop offset="1" stop-color="#D72323"/>
</linearGradient>
</defs>
</svg>
