<svg width="48" height="48" viewBox="0 0 48 48" fill="none" xmlns="http://www.w3.org/2000/svg">
<g clip-path="url(#clip0_913_1327)">
<path d="M12.1567 32.7687L11.7752 33.5H12.6H20.7141C20.6205 34.1226 20.5385 34.8041 20.5104 35.5H13.5H13V36V37.5C13 39.7739 11.2739 41.5 9 41.5H6C3.72614 41.5 2 39.7739 2 37.5V34.8V34.5658L1.82009 34.4159C1.03488 33.7615 0.5 32.7026 0.5 31.5V25.5C0.5 23.2627 1.62155 21.1588 3.3 19.9L4.5 19H3H1.5C1.16362 19 0.922164 18.8901 0.766053 18.7339C0.609943 18.5778 0.5 18.3364 0.5 18C0.5 17.6636 0.609943 17.4222 0.766053 17.2661C0.922164 17.1099 1.16362 17 1.5 17H5.55H5.87826L6.00878 16.6988L7.95784 12.201C9.07951 9.67944 11.6019 8 14.4 8H27.6C30.3957 8 32.9163 9.67662 34.0393 12.1946L35.8358 16.6857L35.9615 17H36.3H40.5C40.8364 17 41.0778 17.1099 41.2339 17.2661C41.3901 17.4222 41.5 17.6636 41.5 18C41.5 18.3364 41.3901 18.5778 41.2339 18.7339C41.0778 18.8901 40.8364 19 40.5 19H39H37.5746L38.6877 19.8904C39.0507 20.1809 39.4196 20.5526 39.7723 20.9661C38.5559 20.6555 37.3159 20.5 36 20.5C30.9768 20.5 26.5518 22.892 23.7526 26.5H23.7525H23.7516H23.7508H23.7499H23.749H23.7482H23.7473H23.7464H23.7455H23.7447H23.7438H23.7429H23.7421H23.7412H23.7403H23.7394H23.7386H23.7377H23.7368H23.736H23.7351H23.7342H23.7333H23.7325H23.7316H23.7307H23.7298H23.729H23.7281H23.7272H23.7263H23.7255H23.7246H23.7237H23.7228H23.722H23.7211H23.7202H23.7193H23.7184H23.7176H23.7167H23.7158H23.7149H23.7141H23.7132H23.7123H23.7114H23.7105H23.7097H23.7088H23.7079H23.707H23.7062H23.7053H23.7044H23.7035H23.7026H23.7018H23.7009H23.7H18.45C16.4454 26.5 14.7824 27.6707 13.9548 29.3224L12.1567 32.7687ZM7.79192 17.7996L7.48549 18.5H8.25H33.75H34.5145L34.2081 17.7996L32.1081 12.9996L32.1081 12.9996L32.1052 12.9931C31.2734 11.1631 29.4444 10 27.45 10H14.4C12.3867 10 10.7186 11.1808 9.89482 12.9931L9.89477 12.9931L9.89192 12.9996L7.79192 17.7996ZM6 29H10.5C11.0636 29 11.5722 28.8099 11.9411 28.4411C12.3099 28.0722 12.5 27.5636 12.5 27C12.5 26.4364 12.3099 25.9278 11.9411 25.5589C11.5722 25.1901 11.0636 25 10.5 25H6C5.43638 25 4.92784 25.1901 4.55895 25.5589C4.19006 25.9278 4 26.4364 4 27C4 27.5636 4.19006 28.0722 4.55895 28.4411C4.92784 28.8099 5.43638 29 6 29Z" fill="#FBFFFE" stroke="url(#paint0_linear_913_1327)"/>
<path d="M47.0597 32.948L47.0637 32.9679L47.0692 32.9873C47.3732 34.0511 47.65 35.0324 47.65 36C47.65 37.0017 47.507 38.0055 47.2192 39.0126L47.2137 39.0321L47.2097 39.0519C47.17 39.2502 47.0239 39.4411 46.7822 39.5754C46.5449 39.7072 46.2603 39.7572 46.0151 39.7129C45.4276 39.5486 44.9008 39.5432 44.479 39.6369C44.2663 39.6842 44.0726 39.7585 43.9103 39.8573C43.7541 39.9523 43.5964 40.0892 43.5028 40.2764L43.4869 40.3082L43.4757 40.3419C43.2451 41.0334 43.5159 41.973 44.3464 42.8035C44.7512 43.2083 44.7512 43.7917 44.3464 44.1964C42.9242 45.6187 41.2214 46.6196 39.2293 47.2H39.2288H39.2279H39.2271H39.2262H39.2253H39.2244H39.2235H39.2227H39.2218H39.2209H39.22H39.2191H39.2183H39.2174H39.2165H39.2156H39.2147H39.2139H39.213H39.2121H39.2112H39.2104H39.2095H39.2086H39.2077H39.2068H39.206H39.2051H39.2042H39.2033H39.2024H39.2016H39.2007H39.1998H39.1989H39.198H39.1972H39.1963H39.1954H39.1945H39.1937H39.1928H39.1919H39.191H39.1901H39.1893H39.1884H39.1875H39.1866H39.1857H39.1849H39.184H39.1831H39.1822H39.1813H39.1805H39.1796H39.1787H39.1778H39.177H39.1761H39.1752H39.1743H39.1734H39.1726H39.1717H39.1708H39.1699H39.169H39.1682H39.1673H39.1664H39.1655H39.1646H39.1638H39.1629H39.162H39.1611H39.1603H39.1594H39.1585H39.1576H39.1567H39.1559H39.155H39.1541H39.1532H39.1523H39.1515H39.1506H39.1497H39.1488H39.148H39.1471H39.1462H39.1453H39.1444H39.1436H39.1427H39.1418H39.1409H39.14H39.1392H39.1383H39.1374H39.1365H39.1356H39.1348H39.1339H39.133H39.1321H39.1313H39.1304H39.1295H39.1286H39.1277H39.1269H39.126H39.1251H39.1242H39.1233H39.1225H39.1216H39.1207H39.1198H39.1189H39.1181H39.1172H39.1163H39.1154H39.1146H39.1137H39.1128H39.1119H39.111H39.1102H39.1093H39.1084H39.1075H39.1066H39.1058H39.1049H39.104H39.1031H39.1022H39.1014H39.1005H39.0996H39.0987H39.0979H39.097H39.0961H39.0952H39.0943H39.0935H39.0926H39.0917H39.0908H39.0899H39.0891H39.0882H39.0873H39.0864H39.0855H39.0847H39.0838H39.0829H39.082H39.0812H39.0803H39.0794H39.0785H39.0776H39.0768H39.0759H39.075H39.0741H39.0732H39.0724H39.0715H39.0706H39.0697H39.0688H39.068H39.0671H39.0662H39.0653H39.0645H39.0636H39.0627H39.0618H39.0609H39.0601H39.0592H39.0583H39.0574H39.0565H39.0557H39.0548H39.0539H39.053H39.0521H39.0513H39.0504H39.0495H39.0486H39.0478H39.0469H39.046H39.0451H39.0442H39.0434H39.0425H39.0416H39.0407H39.0398H39.039H39.0381H39.0372H39.0363H39.0354H39.0346H39.0337H39.0328H39.0319H39.0311H39.0302H39.0293H39.0284H39.0275H39.0267H39.0258H39.0249H39.024H39.0231H39.0223H39.0214H39.0205H39.0196H39.0188H39.0179H39.017H39.0161H39.0152H39.0144H39.0135H39.0126H39.0117H39.0108H39.01H39.0091H39.0082H39.0073H39.0064H39.0056H39.0047H39.0038H39.0029H39.0021H39.0012H39.0003H38.9994H38.9985H38.9977H38.9968H38.9959H38.995H38.9941H38.9933H38.9924H38.9915H38.9906H38.9897H38.9889H38.988H38.9871H38.9862H38.9854H38.9845H38.9836H38.9827H38.9818H38.981H38.9801H38.9792H38.9783H38.9774H38.9766H38.9757H38.9748H38.9739H38.973H38.9722H38.9713H38.9704H38.9695H38.9687H38.9678H38.9669H38.966H38.9651H38.9643H38.9634H38.9625H38.9616H38.9607H38.9599H38.959H38.9581H38.9572H38.9563H38.9555H38.9546H38.9537H38.9528H38.952H38.9511H38.9502H38.9493H38.9484H38.9476H38.9467H38.9458H38.9449H38.944H38.9432H38.9423H38.9414H38.9405H38.9396H38.9388H38.9379H38.937H38.9361H38.9353H38.9344H38.9335H38.9326H38.9317H38.9309H38.93H38.9291H38.9282H38.9273H38.9265H38.9256H38.9247H38.9238H38.9229H38.9221H38.9212H38.9203H38.9194H38.9186H38.9177H38.9168H38.9159H38.915H38.9142H38.9133H38.9124H38.9115H38.9106H38.9098H38.9089H38.908H38.9071H38.9062H38.9054H38.9045H38.9036H38.9027H38.9019H38.901H38.9001H38.8992H38.8983H38.8975H38.8966H38.8957H38.8948H38.8939H38.8931H38.8922H38.8913H38.8904H38.8896H38.8887H38.8878H38.8869H38.886H38.8852H38.8843H38.8834H38.8825H38.8816H38.8808H38.8799H38.879H38.8781H38.8772H38.8764H38.8755H38.8746H38.8737H38.8729H38.872H38.8711H38.8702H38.8693H38.8685H38.8676H38.8667H38.8658H38.8649H38.8641H38.8632H38.8623H38.8614H38.8605H38.8597H38.8588H38.8579H38.857H38.8562H38.8553H38.8544H38.8535H38.8526H38.8518H38.8509H38.85C38.2924 47.2 37.9209 46.8721 37.8351 46.5287L37.8218 46.4755L37.7972 46.4264C37.5657 45.9634 37.3192 45.5457 37.0546 45.2371C36.8038 44.9444 36.4513 44.65 36 44.65C35.2216 44.65 34.4958 45.3696 34.1692 46.5126L34.1637 46.5321L34.1597 46.5519C34.12 46.7502 33.9739 46.9411 33.7322 47.0754C33.4952 47.2071 33.2109 47.2571 32.966 47.2131C30.9544 46.6347 29.2366 45.6294 27.8036 44.1964C27.3988 43.7917 27.3988 43.2083 27.8036 42.8035L27.8196 42.7875L27.8341 42.7701C28.2406 42.2822 28.5009 41.816 28.6368 41.4081C28.7635 41.0282 28.8118 40.6055 28.6472 40.2764C28.5536 40.0892 28.3959 39.9523 28.2397 39.8573C28.0774 39.7585 27.8837 39.6842 27.671 39.6369C27.2492 39.5432 26.7224 39.5487 26.1349 39.7129C25.8897 39.7572 25.6051 39.7072 25.3678 39.5754C25.1261 39.4411 24.98 39.2502 24.9403 39.0519L24.9363 39.0321L24.9308 39.0126C24.643 38.0055 24.5 37.0017 24.5 36C24.5 34.9983 24.643 33.9945 24.9308 32.9873L24.9363 32.9679L24.9403 32.948C24.98 32.7497 25.1261 32.5589 25.3678 32.4246C25.6051 32.2927 25.8897 32.2428 26.1349 32.287C26.7224 32.4513 27.2492 32.4568 27.671 32.3631C27.8837 32.3158 28.0774 32.2415 28.2397 32.1427C28.3959 32.0476 28.5536 31.9108 28.6472 31.7236L28.6631 31.6918L28.6743 31.6581C28.9049 30.9665 28.6341 30.027 27.8036 29.1964C27.3988 28.7917 27.3988 28.2083 27.8036 27.8035C29.2366 26.3705 30.9544 25.3652 32.966 24.7869C33.4454 24.7005 33.9664 24.9873 34.1858 25.5357L34.1935 25.555L34.2028 25.5736C34.4343 26.0365 34.6808 26.4542 34.9454 26.7629C35.1962 27.0555 35.5487 27.35 36 27.35C36.7784 27.35 37.5042 26.6303 37.8308 25.4873L37.8363 25.4679L37.8403 25.448C37.88 25.2497 38.0261 25.0589 38.2678 24.9246C38.5048 24.7929 38.7891 24.7429 39.034 24.7869C41.0456 25.3652 42.7634 26.3705 44.1964 27.8035C44.6012 28.2083 44.6012 28.7917 44.1964 29.1964L44.1804 29.2125L44.1659 29.2299C43.7593 29.7177 43.4991 30.184 43.3632 30.5919C43.2365 30.9718 43.1882 31.3945 43.3528 31.7236C43.4464 31.9108 43.6041 32.0476 43.7603 32.1427C43.9226 32.2415 44.1163 32.3158 44.329 32.3631C44.7508 32.4568 45.2776 32.4513 45.8651 32.287C46.1103 32.2428 46.3949 32.2927 46.6322 32.4246C46.8739 32.5589 47.02 32.7497 47.0597 32.948ZM31 36C31 38.8261 33.1739 41 36 41C38.8261 41 41 38.8261 41 36C41 33.1738 38.8261 31 36 31C33.1739 31 31 33.1738 31 36Z" fill="#FBFFFE" stroke="url(#paint1_linear_913_1327)"/>
</g>
<defs>
<linearGradient id="paint0_linear_913_1327" x1="75.5547" y1="42.4306" x2="-0.355626" y2="42.4306" gradientUnits="userSpaceOnUse">
<stop stop-color="#3A4130"/>
<stop offset="0.487734" stop-color="#3A4750"/>
<stop offset="1" stop-color="#D72323"/>
</linearGradient>
<linearGradient id="paint1_linear_913_1327" x1="67.444" y1="48.0215" x2="23.7955" y2="48.0215" gradientUnits="userSpaceOnUse">
<stop stop-color="#3A4130"/>
<stop offset="0.487734" stop-color="#3A4750"/>
<stop offset="1" stop-color="#D72323"/>
</linearGradient>
<clipPath id="clip0_913_1327">
<rect width="48" height="48" fill="white"/>
</clipPath>
</defs>
</svg>
