<svg width="30" height="30" viewBox="0 0 30 30" fill="none" xmlns="http://www.w3.org/2000/svg">
<path d="M15 16.125L12.3375 18.7375C11.6375 19.4375 11.25 20.35 11.25 21.325C11.25 23.35 12.9375 25 15 25C17.0625 25 18.75 23.35 18.75 21.325C18.75 20.35 18.3625 19.425 17.6625 18.7375L15 16.125Z" fill="#D72323"/>
<path d="M20 7.5L19.45 8.1875C17.975 10.025 15 8.9875 15 6.625V2.5C15 2.5 5 7.5 5 16.25C5 19.9 6.95 23.0875 9.8625 24.825C9.1625 23.8375 8.75 22.625 8.75 21.325C8.75 19.675 9.4 18.125 10.5875 16.95L15 12.625L19.4125 16.9625C20.6 18.125 21.25 19.675 21.25 21.3375C21.25 22.6125 20.8625 23.7875 20.1875 24.775C22.55 23.3375 24.3 20.95 24.825 18.15C25.65 13.7125 23.4875 9.525 20 7.5Z" fill="#D72323"/>
</svg>
