<svg width="30" height="30" viewBox="0 0 30 30" fill="none" xmlns="http://www.w3.org/2000/svg">
<path d="M22.875 10.7375L24.0125 9.6125C24.2479 9.37712 24.3801 9.05788 24.3801 8.725C24.3801 8.39212 24.2479 8.07288 24.0125 7.8375C23.7771 7.60212 23.4579 7.46989 23.125 7.46989C22.7921 7.46989 22.4729 7.60212 22.2375 7.8375L21.1125 8.975C19.3607 7.61982 17.2086 6.88454 14.9938 6.88454C12.7789 6.88454 10.6268 7.61982 8.875 8.975L7.7375 7.825C7.50047 7.58962 7.17963 7.45804 6.84558 7.45922C6.51153 7.46039 6.19163 7.59421 5.95625 7.83125C5.72087 8.06829 5.5893 8.38912 5.59047 8.72317C5.59164 9.05722 5.72547 9.37712 5.9625 9.6125L7.1125 10.75C5.74127 12.4969 4.99724 14.6542 5 16.875C4.99592 18.4693 5.37308 20.0414 6.10003 21.4603C6.82698 22.8792 7.88265 24.1038 9.17899 25.0318C10.4753 25.9598 11.9748 26.5645 13.5523 26.7953C15.1298 27.0261 16.7396 26.8764 18.2474 26.3586C19.7553 25.8409 21.1175 24.9701 22.2205 23.819C23.3235 22.6678 24.1353 21.2696 24.5881 19.741C25.0409 18.2124 25.1217 16.5976 24.8237 15.0314C24.5257 13.4652 23.8576 11.993 22.875 10.7375ZM15 24.375C13.5166 24.375 12.0666 23.9351 10.8332 23.111C9.59986 22.2869 8.63856 21.1156 8.07091 19.7451C7.50325 18.3747 7.35472 16.8667 7.64411 15.4118C7.9335 13.957 8.64781 12.6206 9.6967 11.5717C10.7456 10.5228 12.082 9.8085 13.5368 9.51911C14.9917 9.22972 16.4997 9.37825 17.8701 9.9459C19.2406 10.5136 20.4119 11.4749 21.236 12.7082C22.0601 13.9416 22.5 15.3916 22.5 16.875C22.5 18.8641 21.7098 20.7718 20.3033 22.1783C18.8968 23.5848 16.9891 24.375 15 24.375ZM12.5 5.625H17.5C17.8315 5.625 18.1495 5.4933 18.3839 5.25888C18.6183 5.02446 18.75 4.70652 18.75 4.375C18.75 4.04348 18.6183 3.72554 18.3839 3.49112C18.1495 3.2567 17.8315 3.125 17.5 3.125H12.5C12.1685 3.125 11.8505 3.2567 11.6161 3.49112C11.3817 3.72554 11.25 4.04348 11.25 4.375C11.25 4.70652 11.3817 5.02446 11.6161 5.25888C11.8505 5.4933 12.1685 5.625 12.5 5.625ZM16.25 13.125C16.25 12.7935 16.1183 12.4755 15.8839 12.2411C15.6495 12.0067 15.3315 11.875 15 11.875C14.6685 11.875 14.3505 12.0067 14.1161 12.2411C13.8817 12.4755 13.75 12.7935 13.75 13.125V15.4875C13.467 15.7407 13.2675 16.0738 13.1779 16.4428C13.0883 16.8118 13.1129 17.1993 13.2484 17.5541C13.3839 17.9088 13.6239 18.2141 13.9367 18.4294C14.2495 18.6447 14.6203 18.76 15 18.76C15.3797 18.76 15.7505 18.6447 16.0633 18.4294C16.3761 18.2141 16.6161 17.9088 16.7516 17.5541C16.8871 17.1993 16.9117 16.8118 16.8221 16.4428C16.7325 16.0738 16.533 15.7407 16.25 15.4875V13.125Z" fill="#D72323"/>
</svg>
