<svg width="20" height="20" viewBox="0 0 20 20" fill="none" xmlns="http://www.w3.org/2000/svg">
<rect width="20" height="20" rx="4" fill="white" fill-opacity="0.85"/>
<path d="M14.2 7.72669L14.8066 7.12669C14.9322 7.00115 15.0027 6.83089 15.0027 6.65335C15.0027 6.47582 14.9322 6.30556 14.8066 6.18002C14.6811 6.05448 14.5108 5.98396 14.3333 5.98396C14.1558 5.98396 13.9855 6.05448 13.86 6.18002L13.26 6.78669C12.3257 6.06392 11.1779 5.67178 9.99664 5.67178C8.81542 5.67178 7.66761 6.06392 6.73331 6.78669L6.12664 6.17335C6.00022 6.04782 5.82911 5.97764 5.65095 5.97827C5.47279 5.97889 5.30218 6.05027 5.17664 6.17669C5.05111 6.30311 4.98093 6.47422 4.98156 6.65238C4.98218 6.83054 5.05356 7.00115 5.17998 7.12669L5.79331 7.73335C5.06199 8.66505 4.66517 9.81558 4.66664 11C4.66447 11.8503 4.86562 12.6888 5.25333 13.4455C5.64103 14.2023 6.20405 14.8554 6.89544 15.3503C7.58682 15.8453 8.38652 16.1677 9.22785 16.2908C10.0692 16.4139 10.9277 16.3341 11.7319 16.0579C12.5361 15.7818 13.2627 15.3174 13.8509 14.7035C14.4392 14.0895 14.8721 13.3438 15.1136 12.5285C15.3551 11.7133 15.3982 10.8521 15.2393 10.0168C15.0804 9.18148 14.724 8.39629 14.2 7.72669ZM9.99998 15C9.20885 15 8.43549 14.7654 7.7777 14.3259C7.1199 13.8864 6.60721 13.2617 6.30446 12.5308C6.00171 11.7998 5.92249 10.9956 6.07684 10.2197C6.23118 9.44374 6.61214 8.731 7.17155 8.17159C7.73096 7.61218 8.44369 7.23122 9.21962 7.07688C9.99554 6.92254 10.7998 7.00175 11.5307 7.3045C12.2616 7.60725 12.8863 8.11994 13.3259 8.77774C13.7654 9.43554 14 10.2089 14 11C14 12.0609 13.5786 13.0783 12.8284 13.8284C12.0783 14.5786 11.0608 15 9.99998 15ZM8.66664 5.00002H11.3333C11.5101 5.00002 11.6797 4.92978 11.8047 4.80476C11.9297 4.67973 12 4.51016 12 4.33335C12 4.15654 11.9297 3.98697 11.8047 3.86195C11.6797 3.73692 11.5101 3.66669 11.3333 3.66669H8.66664C8.48983 3.66669 8.32026 3.73692 8.19524 3.86195C8.07021 3.98697 7.99998 4.15654 7.99998 4.33335C7.99998 4.51016 8.07021 4.67973 8.19524 4.80476C8.32026 4.92978 8.48983 5.00002 8.66664 5.00002ZM10.6666 9.00002C10.6666 8.82321 10.5964 8.65364 10.4714 8.52862C10.3464 8.40359 10.1768 8.33335 9.99998 8.33335C9.82317 8.33335 9.6536 8.40359 9.52857 8.52862C9.40355 8.65364 9.33331 8.82321 9.33331 9.00002V10.26C9.18236 10.395 9.07596 10.5727 9.02819 10.7695C8.98042 10.9663 8.99354 11.173 9.0658 11.3622C9.13807 11.5514 9.26608 11.7142 9.43289 11.829C9.5997 11.9439 9.79745 12.0054 9.99998 12.0054C10.2025 12.0054 10.4003 11.9439 10.5671 11.829C10.7339 11.7142 10.8619 11.5514 10.9341 11.3622C11.0064 11.173 11.0195 10.9663 10.9718 10.7695C10.924 10.5727 10.8176 10.395 10.6666 10.26V9.00002Z" fill="#D72323"/>
</svg>
