<svg width="24" height="24" viewBox="0 0 24 24" fill="none" xmlns="http://www.w3.org/2000/svg">
<rect width="24" height="24" rx="4" fill="white" fill-opacity="0.85"/>
<path d="M14.4167 6.66665C14.4167 7.02027 14.2762 7.35941 14.0262 7.60946C13.7761 7.8595 13.437 7.99998 13.0834 7.99998C12.7297 7.99998 12.3906 7.8595 12.1406 7.60946C11.8905 7.35941 11.75 7.02027 11.75 6.66665C11.75 6.31302 11.8905 5.97389 12.1406 5.72384C12.3906 5.47379 12.7297 5.33331 13.0834 5.33331C13.437 5.33331 13.7761 5.47379 14.0262 5.72384C14.2762 5.97389 14.4167 6.31302 14.4167 6.66665ZM12.5644 13.4656L14.2954 15.1736C14.3617 15.2391 14.4136 15.3178 14.4477 15.4046L15.3707 17.7563C15.4353 17.9209 15.4319 18.1045 15.3612 18.2666C15.2905 18.4287 15.1583 18.556 14.9937 18.6206C14.8291 18.6853 14.6455 18.6819 14.4834 18.6112C14.3214 18.5405 14.194 18.4083 14.1294 18.2436L13.258 16.0233L10.282 13.0866C10.2101 13.0157 10.1553 12.9294 10.1216 12.8342C10.0879 12.739 10.0763 12.6373 10.0877 12.537L10.326 10.4303C9.75136 11.0016 9.30803 11.8046 8.96836 12.869C8.94297 12.9538 8.90092 13.0328 8.84468 13.1012C8.78844 13.1696 8.71913 13.2261 8.6408 13.2674C8.56247 13.3088 8.47669 13.3341 8.38847 13.3419C8.30025 13.3497 8.21136 13.3398 8.12699 13.3129C8.04262 13.286 7.96446 13.2425 7.89708 13.185C7.82969 13.1276 7.77444 13.0573 7.73453 12.9782C7.69463 12.8991 7.67088 12.8129 7.66467 12.7246C7.65846 12.6362 7.66991 12.5475 7.69836 12.4636C8.32169 10.5103 9.35669 9.04831 11.0934 8.37798L11.101 8.37498C11.5434 8.21065 12.0034 8.22398 12.4134 8.43565C12.807 8.63931 13.0874 8.99098 13.271 9.38498C13.3484 9.55098 13.4197 9.70598 13.487 9.85165C13.6497 10.2043 13.7864 10.5016 13.918 10.7623C14.1024 11.129 14.2507 11.3723 14.3974 11.5426C14.5334 11.701 14.6684 11.7983 14.8407 11.8656C15.026 11.938 15.2857 11.988 15.6867 12C15.7748 12.0017 15.8617 12.021 15.9423 12.0565C16.0229 12.092 16.0957 12.1432 16.1564 12.207C16.2171 12.2709 16.2646 12.3461 16.2961 12.4284C16.3275 12.5107 16.3424 12.5984 16.3397 12.6865C16.3371 12.7746 16.317 12.8613 16.2807 12.9415C16.2443 13.0218 16.1924 13.094 16.128 13.1541C16.0635 13.2142 15.9878 13.2609 15.9052 13.2916C15.8226 13.3222 15.7347 13.3362 15.6467 13.3326C15.165 13.3183 14.7374 13.2566 14.3557 13.1076C13.9614 12.9536 13.6504 12.7193 13.3857 12.411C13.219 12.217 13.0724 11.9953 12.9357 11.7543L12.5644 13.4656Z" fill="#D72323"/>
<path d="M10.0877 14.0733L11.1927 15.1333L10.684 16.849C10.6447 16.9817 10.565 17.0989 10.456 17.1843L8.7447 18.5253C8.67576 18.5793 8.59685 18.6192 8.51249 18.6427C8.42813 18.6662 8.33997 18.6728 8.25304 18.6623C8.16611 18.6517 8.08211 18.6241 8.00584 18.5811C7.92957 18.538 7.86253 18.4804 7.80853 18.4115C7.75454 18.3425 7.71465 18.2636 7.69115 18.1793C7.66765 18.0949 7.66099 18.0067 7.67156 17.9198C7.68213 17.8329 7.70972 17.7489 7.75276 17.6726C7.79579 17.5963 7.85342 17.5293 7.92237 17.4753L9.46637 16.266L9.93137 14.696L10.0877 14.0733Z" fill="#D72323"/>
</svg>
